<svg width="24" height="24" viewBox="0 0 24 24" fill="none" xmlns="http://www.w3.org/2000/svg">
<path d="M11.75 13.75H6.75C6.34 13.75 6 13.41 6 13C6 12.59 6.34 12.25 6.75 12.25H11.75C12.16 12.25 12.5 12.59 12.5 13C12.5 13.41 12.16 13.75 11.75 13.75Z" fill="white"/>
<path d="M15.75 17.75H6.75C6.34 17.75 6 17.41 6 17C6 16.59 6.34 16.25 6.75 16.25H15.75C16.16 16.25 16.5 16.59 16.5 17C16.5 17.41 16.16 17.75 15.75 17.75Z" fill="white"/>
<rect x="1.75" y="1.75" width="20.5" height="20.5" rx="6.25" stroke="white" stroke-width="1.5"/>
</svg>
